<svg width="64" height="64" viewBox="0 0 64 64" fill="none" xmlns="http://www.w3.org/2000/svg">
<g clip-path="url(#clip0_27_11)">
<rect width="64" height="64" rx="32" fill="white"/>
<rect width="64" height="64" fill="#3498DB"/>
<rect x="15" y="16" width="34" height="31" fill="white"/>
<path fill-rule="evenodd" clip-rule="evenodd" d="M5 32C5 24.8392 7.84463 17.9716 12.9081 12.9081C17.9716 7.84463 24.8392 5 32 5C39.1608 5 46.0284 7.84463 51.0919 12.9081C56.1554 17.9716 59 24.8392 59 32C59 39.1608 56.1554 46.0284 51.0919 51.0919C46.0284 56.1554 39.1608 59 32 59C24.8392 59 17.9716 56.1554 12.9081 51.0919C7.84463 46.0284 5 39.1608 5 32ZM23.5336 38.3026C23.5336 37.6632 23.2796 37.05 22.8275 36.5979C22.3754 36.1458 21.7622 35.8919 21.1229 35.8919C20.4835 35.8919 19.8703 36.1458 19.4182 36.5979C18.9661 37.05 18.7121 37.6632 18.7121 38.3026C18.7109 39.8427 19.1628 41.3491 20.0115 42.6343C20.8602 43.9194 22.0682 44.9265 23.4851 45.5301C24.902 46.1337 26.4652 46.3072 27.9799 46.0288C29.4947 45.7505 30.8941 45.0327 32.0039 43.9649C33.1136 45.0312 34.5123 45.7478 36.026 46.0255C37.5398 46.3032 39.1017 46.1298 40.5177 45.5268C41.9337 44.9239 43.1411 43.9179 43.99 42.6342C44.8388 41.3504 45.2914 39.8454 45.2917 38.3064C45.2917 37.9898 45.2294 37.6764 45.1082 37.3839C44.9871 37.0914 44.8095 36.8257 44.5856 36.6018C44.3618 36.3779 44.096 36.2004 43.8035 36.0792C43.5111 35.9581 43.1976 35.8957 42.881 35.8957C42.5644 35.8957 42.2509 35.9581 41.9585 36.0792C41.666 36.2004 41.4002 36.3779 41.1764 36.6018C40.9525 36.8257 40.7749 37.0914 40.6538 37.3839C40.5326 37.6764 40.4703 37.9898 40.4703 38.3064C40.4703 39.1095 40.1513 39.8796 39.5834 40.4474C39.0156 41.0153 38.2455 41.3343 37.4424 41.3343C36.6394 41.3343 35.8692 41.0153 35.3014 40.4474C34.7336 39.8796 34.4146 39.1095 34.4146 38.3064C34.4146 37.6671 34.1606 37.0539 33.7085 36.6018C33.2564 36.1497 32.6432 35.8957 32.0039 35.8957C31.3645 35.8957 30.7513 36.1497 30.2992 36.6018C29.8471 37.0539 29.5931 37.6671 29.5931 38.3064C29.5931 38.7041 29.5148 39.0978 29.3627 39.4651C29.2105 39.8325 28.9875 40.1663 28.7063 40.4474C28.4251 40.7286 28.0914 40.9516 27.724 41.1038C27.3566 41.256 26.9629 41.3343 26.5653 41.3343C26.1677 41.3343 25.7739 41.256 25.4066 41.1038C25.0392 40.9516 24.7054 40.7286 24.4243 40.4474C24.1431 40.1663 23.9201 39.8325 23.7679 39.4651C23.6157 39.0978 23.5374 38.7041 23.5374 38.3064L23.5336 38.3026ZM41.7239 24.9337C42.746 24.9337 43.5753 25.466 43.8183 25.8594C43.9842 26.1292 44.2016 26.3636 44.458 26.5493C44.7145 26.735 45.0051 26.8684 45.3131 26.9418C45.6211 27.0152 45.9406 27.0273 46.2533 26.9772C46.5659 26.9272 46.8657 26.816 47.1354 26.6501C47.4052 26.4843 47.6396 26.2669 47.8253 26.0104C48.011 25.7539 48.1444 25.4634 48.2178 25.1553C48.2912 24.8473 48.3032 24.5278 48.2532 24.2152C48.2032 23.9025 48.092 23.6027 47.9261 23.333C46.6147 21.2 44.0189 20.1123 41.7239 20.1123C39.4289 20.1123 36.833 21.2 35.5216 23.333C35.3557 23.6027 35.2445 23.9025 35.1945 24.2152C35.1445 24.5278 35.1565 24.8473 35.2299 25.1553C35.3782 25.7774 35.7676 26.3151 36.3123 26.6501C36.857 26.9852 37.5125 27.0901 38.1346 26.9418C38.7567 26.7935 39.2944 26.4042 39.6294 25.8594C39.8724 25.466 40.7017 24.9337 41.7239 24.9337ZM20.1894 25.8594C20.4324 25.466 21.2617 24.9337 22.2839 24.9337C23.306 24.9337 24.1353 25.466 24.3783 25.8594C24.7133 26.4042 25.251 26.7935 25.8731 26.9418C26.4952 27.0901 27.1507 26.9852 27.6954 26.6501C28.2402 26.3151 28.6295 25.7774 28.7778 25.1553C28.9261 24.5332 28.8212 23.8777 28.4861 23.333C27.1747 21.2 24.5789 20.1123 22.2839 20.1123C19.9889 20.1123 17.3969 21.2 16.0816 23.333C15.9157 23.6027 15.8045 23.9025 15.7545 24.2152C15.7045 24.5278 15.7165 24.8473 15.7899 25.1553C15.8634 25.4634 15.9967 25.7539 16.1824 26.0104C16.3681 26.2669 16.6026 26.4843 16.8723 26.6501C17.142 26.816 17.4418 26.9272 17.7544 26.9772C18.0671 27.0273 18.3866 27.0152 18.6946 26.9418C19.0026 26.8684 19.2932 26.735 19.5497 26.5493C19.8062 26.3636 20.0235 26.1292 20.1894 25.8594Z" fill="#3498DB"/>
</g>
<defs>
<clipPath id="clip0_27_11">
<rect width="64" height="64" rx="32" fill="white"/>
</clipPath>
</defs>
</svg>
